<svg xmlns="http://www.w3.org/2000/svg" width="548" height="385" viewBox="0 0 548 385">
    <g fill="none" fill-rule="evenodd" transform="translate(1)">
        <path stroke="#000" stroke-width=".647" d="M393.529 184.54L375.886 180.142M288.807 101.656L289.405 99.254 291.921 89.166 295.263 75.764 370.613 94.546 370.613 94.546M381.395 97.234L381.395 97.234 439.032 111.601 419.255 190.953 404.358 187.239M360.036 176.192L275.481 155.115 286.669 110.228M152.786 222.155h-8.052c-2.435 0-4.41-1.973-4.41-4.408h0v-97.045c.01-2.43 1.987-4.395 4.419-4.39h106.62c2.43 0 4.4 1.97 4.4 4.4v97.035c0 2.431-1.968 4.403-4.4 4.408h-36.045M400.434 237.05h-94.218c-3.65 0-6.61 2.958-6.612 6.607v59.127c0 3.65 2.96 6.61 6.61 6.612h138.39c3.65 0 6.61-2.96 6.61-6.61h0v-59.122c0-1.753-.695-3.434-1.935-4.673-1.239-1.24-2.92-1.937-4.673-1.937h-7.177m-33.807 41.423c1.342.154 2.885.264 4.684.333 1.923.072 4.238.099 6.766.047m27.054-5.198c-2.94 1.933-7.502 3.196-12.488 3.995-4.816.774-10.028 1.118-14.566 1.203"/>
        <path fill="#010101" fill-rule="nonzero" d="M341.244 1.94c-3.936 1.301-5.95-1.092-10.108-.797-3.2.278-6.161 1.805-8.244 4.25-2.642 3.18-2.593 6.983-2.528 11.837.047 3.404.644 5.578 1.065 5.592.42.013.353-1.828 1.729-2.662.827-.501 1.342-.141 1.86-.671.772-.772-.024-1.872.533-3.058.71-1.523 3.284-2.38 4.389-1.597 1.167.828.223 3.132 1.196 3.592.87.414 1.819-1.315 4.389-1.863.568-.118 1.695-.36 2.926 0 2.078.61 2.035 2.237 4.522 3.99 1.341.938 2.892 1.53 4.517 1.727 1.134.128 3.442.168 3.722-.67.337-1.005-2.696-2.034-2.66-3.991.034-1.604 2.112-2.753 2.66-3.058 1.959-1.084 4.095-.836 4.39-.798 1.134.14 1.678.505 1.861.266.33-.425-.767-2.422-2.527-3.06-1.76-.637-3.43.394-3.724-.132-.249-.447.975-1.159 1.597-2.66.64-1.545.447-3.43-.267-4.786C351.066.564 347.29-.103 344.83.33c-1.76.324-1.725.995-3.586 1.608z"/>
        <path fill="#D8D8D8" stroke="#000" stroke-width=".539" d="M323.728 35.565c-.696-.654-2.27-2.13-3.856-2.662-2.53-.85-4.492.895-9.31 2.928-3.782 1.595-4.88 1.492-7.714 2.525-7.961 2.908-13.374 8.85-14.763 10.374-11.153 12.246-9.81 27.96-8.777 40.038.405 4.747 1.277 7.934 3.192 8.516 1.648.496 3.677-1.052 4.786-2.394 3.264-3.936.698-8.627.93-15.16.345-9.737 6.711-18.581 13.3-23.008 3.765-2.53 7.21-3.237 14.093-4.655 6.882-1.418 14.686-3.024 24.206-.67 3.46.852 10.996 2.818 17.689 9.17 2.498 2.376 10.103 9.6 11.436 20.082.448 3.579.347 8.826 2.662 9.575 1.257.407 2.684-.69 6.115-.266 1.119.143 1.26.284 1.598.134 1.277-.588 1.384-3.786-.533-13.566-1.617-8.247-2.424-12.373-3.988-16.223-1.62-3.986-3.657-9.007-8.375-14.091-3.735-4.027-7.157-5.95-12.9-9.171-6.059-3.407-9.394-5.219-12.63-3.99-2.555.968-2.201 2.757-5.852 4.52-.507.246-5.96 2.805-9.043.532-.895-.662-.734-1.096-2.266-2.538z"/>
        <path stroke="#000" stroke-width=".647" d="M286.62 95.606c.233 1.242.571 2.463 1.01 3.648l.059.15c.306.782.68 1.536 1.118 2.252.909 1.486 1.635 2.1 1.676 3.734 0 .284.033 3.22-1.995 4.388-.555.31-1.184.465-1.819.447-1.352-.06-2.64-.595-3.635-1.512-1.436-1.342-1.532-3.198-1.729-6.916-.049-.941-.09-1.79-.09-2.545-.027-.869.077-1.737.31-2.575M379.332 90.09c.533 1.174.913 2.546 1.318 3.995.312 1.034.561 2.085.745 3.15h0c.127.912.074 1.625-.347 1.905-1.398.924-5.178-4.026-7.98-2.794-1.074.475-1.725 1.736-2.528 1.463-.613-.208-.788-1.134-.797-1.196-.143-.835.302-1.4.87-2.067h0c.573-.605 1.042-1.3 1.39-2.056.284-.687.406-1.43.355-2.172"/>
        <path fill="#010101" fill-rule="nonzero" d="M424.265 195.822c-.492-2.013-2.302-2.31-2.192-3.389.11-1.078 1.908-.98 2.391-2.395.47-1.371-.937-2.28-.398-3.59.382-.93 1.566-1.638 2.393-1.396.895.262.84 1.508 1.79 3.579.67 1.436 1.79 3.863 3.802 4.587 1.79.651 2.497-.722 4.588-.199 1.964.492 3.99 2.362 4.19 4.389.223 2.33-2.085 3.579-1.399 5.187.481 1.118 1.705.722 2.595 1.986 1.548 2.212-.465 5.816-.798 6.386-.305.521-1.378 2.362-2.394 2.197-.917-.153-1.118-1.826-1.79-1.79-.574.025-.688 1.246-1.395 2.194-.26.35-1.188 1.448-5.393 1.79-4.4.364-7.05.584-8.374-1.199-1.036-1.39-1.014-3.657-.197-5.185 1.103-2.067 3.389-2.28 3.389-3.802 0-.85-.734-.935-1.135-2.593-.187-.806-.232-1.639-.134-2.46.134-1.022.407-1.208.533-2.262.094-.677.07-1.366-.072-2.035z"/>
        <path stroke="#000" stroke-width=".647" d="M402.812 188.711l.114.13c1.326 1.608.544 3.885.2 6.583-.094.925-.127 1.855-.097 2.785.082 3.446.712 6.858 1.865 10.108l.027.073c1.186 3.304 3.087 5.646 5.017 7.56h0M396.426 213.407c-.246-1.52-.447-3.21-.635-5.09-.224-2.273-.425-4.818-.644-7.706-.068-.859-.121-1.658-.162-2.402-.324-6.071.224-8.54 1.193-9.717"/>
        <path fill="#333E63" fill-rule="nonzero" stroke="#000" stroke-width=".647" d="M412.3 321.897c-.456 3.921-.566 7.875-.328 11.815.463 8.126 2.13 13.92 2.13 13.92 1.668 4.414 3.093 8.358 4.278 11.706 1.492 4.23 1.986 5.803 1.79 7.95-.296 3.216-2.184 7.983-5.009 8.614-7.605 1.697-20.927-26.761-22.895-42.186-.44-3.72-.61-7.468-.513-11.213.148-4.411.724-8.798 1.72-13.098.824-3.69 1.884-7.442 3.067-11.631 2.373-8.406 3.548-9.72 7.082-19.281 1.342.152 2.885.264 4.681.33 1.922.075 4.25.101 6.764.048 4.543-.09 9.753-.425 14.569-1.201-1.228 3.74-4.19 8.018-8.965 19.106-.636 1.479-1.233 2.863-1.79 4.17-1.373 3.211-2.505 5.951-3.436 8.466-1.62 4.406-2.617 8.11-3.145 12.485z"/>
        <path fill="#333E63" fill-rule="nonzero" stroke="#000" stroke-width=".647" d="M460.642 362.474c-.056.105-.04.06-3.803 4.608-4.25 5.12-4.368 5.306-4.809 5.41-2.858.687-5.449-5.236-16.384-21.868 0 0-5.789-8.829-9.334-16.912-1.524-3.493-2.74-7.113-3.633-10.817-1.266-5.122-.76-5.178-2.194-13.5-.26-1.513-.586-3.305-.993-5.45-.224-1.118-.412-2.114-.593-3.015-1.342-6.655-1.859-8.068-2.6-13.143-.5-3.43-.927-6.373-1.216-8.932 4.543-.09 9.752-.425 14.568-1.201 4.986-.799 9.547-2.062 12.49-3.997.72 1.66 1.286 3.381 1.69 5.144 1.956 9.283-3.638 15.658-5.986 22.74-4.284 12.914 2.283 26.275 5.173 32.162 7.234 14.747 20.518 23.385 17.624 28.771z"/>
        <path fill="#010101" fill-rule="nonzero" d="M181.792 367.187c1.63 1.849 2.848 4.252 2.883 6.605.004.226-.004.452-.024.678-.551 6.358-10.316 10.273-17.414 9.412-4.006-.488-8.336-2.642-8.235-4.436.114-2.004 5.578-1.35 10.22-5.73 1.234-1.163 2.243-2.547 2.972-4.081 1.357-2.793 1.537-5.115 3.459-5.562 1.212-.281 2.745.27 4.205 1.332l1.934 1.782zM209.178 368.189c1.629 1.848 2.848 4.25 2.883 6.603.004.227-.004.453-.024.679-.552 6.358-10.317 10.272-17.414 9.41-4.007-.487-8.337-2.64-8.236-4.435.114-2.003 5.579-1.35 10.22-5.73 1.235-1.163 2.244-2.547 2.975-4.082 1.355-2.793 1.533-5.116 3.456-5.561 1.212-.281 2.745.27 4.205 1.332l1.935 1.784z"/>
        <path stroke="#000" stroke-width=".647" d="M221.489 256.11c.161-.141.32-.285.483-.448.296-.289.569-.6.817-.93 1.872-2.501 2.32-6.185 1.462-8.78-.047-.14-.094-.27-.14-.398-.645-1.579-1.736-2.205-4.116-3.95"/>
        <path stroke="#000" stroke-width=".647" d="M221.646 268.61c.972-.645 1.888-1.37 2.74-2.169.132-.118.275-.253.425-.4 1.534-1.472 4.075-4.355 5.96-9.171.142-.38.305-.778.461-1.197 1.003-2.661 2.08-6.117 1.651-10.108-.056-.536-.14-1.069-.25-1.597-.347-1.68-.993-3.162-2.139-5.484-.313-.631-.67-1.322-1.053-2.094-1.119-2.237-2.608-5.165-4.52-7.714-1.855-2.43-4.005-4.618-6.4-6.516-.553-.425-1.119-.834-1.662-1.201-1.75-1.148-3.467-1.908-4.908-1.946"/>
        <path fill="#010101" fill-rule="nonzero" d="M202.575 185.204c-4.375-2.402-9.71-.038-10.645.398-1.329.622-5.261 2.46-5.32 5.32-.042 2.097 2.014 3.723 2.528 4.115 3.17 2.498 6.787 1.364 7.58 3.326.473 1.168-.384 2.628 0 2.791.386.164.994-1.418 2.13-1.462.79-.034 1.736.67 1.861 1.462.208 1.327-2.03 2.031-1.86 3.326.14 1.032 1.603.929 2.525 2.394 1.118 1.79-.038 3.532.798 4.122.895.633 3.389-.568 4.921-2.527 2.514-3.215 1.297-7.013 2.792-7.447.937-.272 2.43.915 2.793 2.26.568 2.129-2.013 3.433-1.463 5.32.293 1.005 1.703 1.703 4.521 3.058 3.281 1.58 3.79 1.316 4.116 1.996 1.049 2.13-3.973 4.683-5.451 10.904-.354 1.487-1.027 4.303.266 6.916 2.346 4.749 9.394 5.185 11.568 5.319 2.302.143 8.8.546 12.9-4.116 2.335-2.652 2.78-5.677 2.928-6.782.731-5.473-1.827-11.696-6.245-15.026-3.264-2.46-6.192-2.322-7.446-5.32-1.018-2.43.357-3.83-.799-5.054-1.97-2.096-6.518 1.373-11.437-1.063-.86-.427-1.921-.97-2.527-2.13-1.15-2.196.65-4.083-.398-5.716-.895-1.38-2.546-.613-5.322-1.863-3.075-1.39-2.69-3.074-5.314-4.521z"/>
        <path stroke="#000" stroke-width=".647" d="M152.945 191.81c-1.107-1.893-1.608-4.078-1.438-6.264.018-.223.33-3.579 1.418-3.724.758-.105 1.062 1.45 2.483 2.308.169.104.347.192.532.264.964.383 1.577.143 2.217.161.345.003.682.101.975.284 1.136.671 1.68 2.217 1.597 3.456-.02.296-.096.882-1.953 3.458-.244.34-.463.638-.67.895M155.405 184.121L155.405 174.899M158.154 184.546L158.154 174.899"/>
        <path fill="#333E63" fill-rule="nonzero" stroke="#000" stroke-width=".647" d="M221.149 296.63c-.21 3.371-.61 7.805-1.154 14.495-.613 7.538-1.917 15.058-2.805 22.591-.864 7.339-.725 13.39-.785 17.709-.21 14.986.84 20.855-2.908 23.374-1.966 1.328-5.035 1.566-7.364.447-10.237-4.932-6.075-36.258-5.368-41.534.448-3.452 2.127-15.933.275-30.765-.273-2.192-.778-5.495-1.79-5.592-2.71-.241-6.893 22.46-7.38 25.135-.524 2.88-1.012 5.793-1.79 11.213-4.006 28.214-3.512 37.428-9.339 40.183-2.301 1.087-5.316 1.04-7.213-.302-2.46-1.747-2.839-5.554-2.013-14.791.975-10.822 2.661-14.915 3.73-25.09.549-5.194 1.157-11.238 1.857-18.196.635-6.306 1.514-12.587 2.183-18.885.235-2.215.448-4.431.609-6.652.091-1.2.17-2.351.255-3.456.306-4.026.69-7.464 1.896-10.374.22-.533.47-1.05.752-1.553 1.288.569 2.738 1.056 4.212 1.553 1.091.367 4.72 1.523 12.37 1.729 7.314.199 11.95.273 15.784-1.73.73-.381 1.422-.83 2.067-1.341.378-.298.723-.6 1.038-.895.244.74.47 1.494.671 2.237.942 3.451 1.465 6.916 1.845 9.443.05.318.092.627.135.93.45 3.273.494 5.832.23 10.118z"/>
        <path fill="#010101" fill-rule="nonzero" d="M420.792 368.187c1.63 1.849 2.848 4.252 2.883 6.605.004.226-.004.452-.024.678-.551 6.358-10.316 10.273-17.414 9.412-4.006-.488-8.336-2.642-8.235-4.436.114-2.004 5.578-1.35 10.22-5.73 1.234-1.163 2.243-2.547 2.972-4.081 1.357-2.793 1.537-5.115 3.459-5.562 1.212-.281 2.745.27 4.205 1.332l1.934 1.782zM460.792 363.189c1.63 1.848 2.848 4.25 2.883 6.603.004.227-.004.453-.024.679-.551 6.358-10.316 10.272-17.414 9.41-4.006-.487-8.336-2.64-8.235-4.435.114-2.003 5.578-1.35 10.22-5.73 1.235-1.163 2.243-2.547 2.974-4.082 1.355-2.793 1.534-5.116 3.457-5.561 1.212-.281 2.745.27 4.205 1.332l1.934 1.784z"/>
        <path stroke="#000" stroke-width=".647" d="M366.99 73.529L289.241 73.529M477.534 73.529L378.196 73.529M278.715 73.529L64.198 73.529"/>
        <rect width="53.054" height="51.459" x="71.975" y="85.881" fill="#D8D8D8" stroke="#000" stroke-width=".539" rx="3.506"/>
        <rect width="46.814" height="3.988" x="75.433" y="142.128" stroke="#000" stroke-width=".647" rx="1.342"/>
        <path stroke="#000" stroke-width=".647" d="M122.245 151.03v1.312c0 .74-.6 1.342-1.342 1.342H76.77c-.741 0-1.342-.601-1.342-1.342v-1.311c0-.741.6-1.342 1.342-1.342h44.136c.742 0 1.342.6 1.342 1.342h-.004z"/>
        <circle cx="150.534" cy="95.704" r="10.2" stroke="#000" stroke-width=".647"/>
        <path stroke="#000" stroke-width=".647" d="M279.346 89.166h-111.68c-.99 0-1.79.802-1.79 1.79h0v6.486c0 .989.8 1.79 1.79 1.79h113.547M289.407 99.254L287.631 99.254M291.921 89.166L288.946 89.166"/>
        <circle cx="82.683" cy="63.965" r="3.259" stroke="#000" stroke-width=".647"/>
        <circle cx="97.177" cy="63.965" r="3.259" stroke="#000" stroke-width=".647"/>
        <circle cx="110.927" cy="63.965" r="3.259" stroke="#000" stroke-width=".647"/>
        <path stroke="#000" stroke-width=".647" d="M182.057 245.56c.257 4.524.416 7.798.402 10.109h-34.363c-.716.002-1.403-.28-1.91-.786-.507-.504-.793-1.19-.795-1.905v-4.697c-.003-1.487 1.197-2.697 2.684-2.704h33.982v-.016zM232.881 245.56h54.897c1.494 0 2.705 1.212 2.705 2.705h0v4.697c0 1.494-1.211 2.705-2.705 2.705H231.23M395.791 208.317L389.662 208.317M394.985 198.209L383.169 198.209M425.437 198.209h25.857c1.494 0 2.705 1.21 2.705 2.704h0v4.697c0 .718-.284 1.406-.792 1.914-.507.507-1.195.793-1.913.793h-28.033M371.307 198.209H302.32c-.718-.001-1.406.284-1.914.79-.507.508-.793 1.196-.793 1.914h0v4.697c0 1.495 1.212 2.707 2.707 2.707h72.219M182.804 274.6c1.288.569 2.735 1.057 4.21 1.553M179.149 266.04h-32.21c-.718 0-1.406.286-1.913.794-.507.507-.792 1.196-.791 1.913h0v4.697c0 1.494 1.21 2.705 2.704 2.705h35.118M215.179 276.149c.73-.383 1.421-.832 2.067-1.342.378-.298.722-.6 1.038-.895M224.813 266.04h61.814c1.493.002 2.704 1.213 2.704 2.707v4.697c0 1.494-1.211 2.705-2.704 2.705h-67.679M220.928 286.53h66.074c1.494 0 2.705 1.21 2.705 2.704h0v4.697c0 .717-.284 1.406-.792 1.914-.507.507-1.195.792-1.913.792h-65.849M179.292 296.63h-31.975c-1.494 0-2.704-1.212-2.704-2.706v-4.697c.004-1.49 1.213-2.698 2.704-2.698h32.836M76.655 307.835h49.16c1.261 0 2.284 1.022 2.284 2.283v3.559c0 1.263-1.024 2.286-2.286 2.286H76.655c-1.262 0-2.284-1.022-2.284-2.284v-3.558c0-1.262 1.022-2.285 2.284-2.286h0z"/>
        <path fill="#D8D8D8" stroke="#000" stroke-width=".539" d="M403.622 278.477c-5.145-.588-7.104-1.79-8.077-3.458-2.15-3.706 1.702-7.795 3.99-15.76.318-1.107 3.328-12.04.895-22.209-.609-2.66-1.654-5.202-3.094-7.52-6.077-9.56-14.29-5.442-21.146-16.357-.398-.636-.316-.569-1.655-4.865-.658-2.112-1.66-5.281-3.23-10.106-.448-1.387-.949-2.908-1.499-4.581-1.95-5.932-3.158-9.508-1.396-11.37 1.584-1.67 5.203-1.565 7.78-.2 4.84 2.554 3.536 8.23 6.974 16.15.476 1.095 1.012 2.163 1.604 3.2.868 1.518 2.436 4.25 4.89 6.907 1.912 2.109 4.208 3.837 6.763 5.093.425.203.864.391 1.313.568 3.85 1.5 5.098.557 12.204 1.973h0c.609.123 1.264.264 1.962.427 5.297 1.203 8.191 1.859 11.571 3.789 5.648 3.22 8.697 7.728 10.573 10.57 1.317 2.002 2.452 4.116 3.391 6.32 1.846 4.314 2.716 8.318 3.391 11.436 1.047 4.825.81 6.451 2.394 12.566 1.724 6.648 2.53 6.762 2.194 8.375-.347 1.675-1.526 3.069-3.284 4.225-2.941 1.933-7.502 3.196-12.488 3.995-4.816.772-10.027 1.118-14.566 1.203"/>
        <path stroke="#000" stroke-width=".647" d="M182.804 274.6c-2.17-.957-3.894-2.151-4.568-4.025-.59-1.651-.022-2.861.913-4.523.895-1.597 2.127-3.615 2.997-6.845.206-.77.302-1.912.313-3.53.016-2.31-.143-5.591-.4-10.105l-.224-3.99c-.308-5.3-.483-6.755-1.729-7.715-2.545-1.957-5.968.92-11.305.671-6.81-.324-11.696-5.518-12.63-6.518-1.56-1.665-2.715-3.667-3.374-5.851-1.539-4.85-1.487-11.43-1.418-21.41.036-4.895.396-7.729 1.566-8.948.21-.219.462-.392.742-.507 1.298-.535 3.168.14 4.423 1.342.326.31.61.662.84 1.049 1.014 1.713.448 3.467.135 5.72 0 0-.499 3.726.93 10.771.568 2.8 2.358 8.646 5.677 11.97 1.087 1.089 2.34 1.907 3.767 2.26 1.277.316 3.791-.482 8.053-2.26 2.37-.994 5.285-2.282 8.833-3.859 2.46-1.094 5.296-2.396 8.372-1.595 1.179.307 1.986.814 3.724.93 2.237.15 3.355-.53 5.053-.796 3.154-.498 5.84.81 7.182 1.461.435.212.856.45 1.262.711 1.3.845 2.441 1.91 3.375 3.147.152.195.3.396.448.595h0c2.013 2.892 2.89 6.104 3.308 7.65.58 2.143.416 2.669.635 6.9h0c.04.761.092 1.64.163 2.673.045.645.079 1.1.13 1.636.072.814.179 1.811.405 3.95.224 2.046.539 5.144 1.047 10.108 0 .116.022.237.036.355v.09c.447 4.337.742 7.45.568 9.926-.052.868-.19 1.728-.414 2.568-.2.728-.485 1.428-.852 2.087-.678 1.188-1.529 2.269-2.523 3.208"/>
        <path fill="#FF5745" d="M144.288 170.737v-1.512h25.708v-52.936h-25.193c-2.45-.02-4.453 1.95-4.474 4.4v50.036h3.955l.004.012z"/>
        <path stroke="#000" stroke-width=".647" d="M375.648 181.795c.139-.54.218-1.095.238-1.653.038-1.23-.224-2.487-.994-3.395-.769-.908-1.874-1.246-2.404-1.4-2.224-.647-3.132.476-5.41.4-3.452-.114-4.875-2.814-6.21-2.013-.671.407-.895 1.447-.83 2.46.025.394.1.782.224 1.157.637 1.863 2.547 2.684 3.802 3.207 2.353.993 3.778.671 5.308 1.005M404.358 187.24c-.439.566-.96 1.062-1.548 1.471-1.342-1.458-4.14-1.896-5.87-.868-.29.17-.548.39-.762.65-1.407-1.097-2.358-2.719-2.65-3.953-.155-.653-.128-1.197.115-1.497.774-.964 3.342-.013 3.689.117 2.172.823 2.194 1.872 3.275 1.802 1.263-.078 1.534-1.54 4.207-3.07.83-.477 1.264-.719 1.537-.535.885.597-1.208 4.88-1.993 5.882zM144.237 170.737L144.237 174.899 155.405 174.899 158.154 174.899 169.591 174.899 169.591 170.737M169.593 170.737L144.237 170.737"/>
        <circle cx="195.9" cy="200.224" r="10.267" stroke="#010101" stroke-width=".647"/>
        <path stroke="#010101" stroke-width=".647" d="M200.694 209.305h0c.31.922.67 1.98 1.091 3.203.638 1.832 1.159 3.244 1.566 4.353M194.153 210.343c.43 1.074.674 2.213.72 3.369.045.992-.075 1.985-.353 2.939M418.302 192.465c1.342-.618 2.237-.712 3.822-.712 5.842 0 10.578 4.736 10.578 10.578s-4.736 10.578-10.578 10.578-10.577-4.736-10.577-10.578c0-3.391 1.257-6.133 3.737-8.068"/>
        <path stroke="#010101" stroke-width=".647" d="M413.358 208.265c.041 1.423-.062 2.847-.308 4.25-.232 1.327-.614 2.624-1.137 3.865M418.915 218.154h0c-.34-.736-.542-1.527-.598-2.335-.065-1.167.13-2.333.569-3.416M344.083 20.323c.783 6.444-6.634 13.003-13.526 11.72-4.733-.88-9.334-5.481-8.898-11.055.407-5.23 5.055-8.798 9.466-9.466 5.977-.904 12.303 3.386 12.958 8.801z"/>
        <path stroke="#010101" stroke-width=".647" d="M327.7 31.05c.206 1.092.314 2.28-.292 3.548-.569 1.181-1.488 1.888-2.396 2.405M335.037 31.85c.112.775.264 1.681.486 2.748.21 1.022.405 1.79.568 2.398"/>
        <path fill="#333E63" fill-rule="nonzero" stroke="#000" stroke-width=".647" d="M64.196 217.807v-65.15c-.058 2.729-.483 5.437-1.264 8.052-.658 2.208-1.778 5.968-3.333 6-1.843.033-3.907-5.23-4.332-10-.687-7.725 3.292-9.903 3.999-16.998.747-7.496-2.423-17.812-10.332-21.664-5.062-2.46-12.772-2.684-17 1.67-5.09 5.249-2.632 14.538-2.332 15.656.709 2.667 1.552 3.472 4.666 11.665.952 2.51 1.67 4.532 1.832 5 3.328 9.617-.544 19.826-.166 28.992.132 3.203 1.06 6.263 2.863 10.133 1.458 3.131 3.492 6.81 6.133 11.528 5.176 9.329 11.664 17.866 19.266 25.352"/>
        <path fill="#333E63" fill-rule="nonzero" stroke="#000" stroke-width=".647" d="M64.196 217.807c-4.791-6.692-9.473-11.631-15.763-18.274-2.579-2.716-5.46-5.606-9.63-8.364-.491-.323-1.001-.646-1.53-.968-4.381-2.648-9.6-5.706-16.495-5.165-3.303.253-6.5 1.28-9.332 2.998-7.977 4.907-9.952 13.926-10.66 17.171C.446 206.8-2.289 220.26 6.282 231.7c7.252 9.674 18.138 11.975 25.33 13.494 10.667 2.257 12.078-.671 22.828 1.342 3.333.622 6.6 1.55 9.762 2.774v-21.25M64.196 318.461c-2.302-1.538-4.628-3.131-6.71-4.563-.757-.524-1.472-1.024-2.146-1.498-.757-.531-1.464-1.033-2.12-1.505h0c-7.395-5.304-8.829-6.984-9.947-8.545-3.803-5.312-2.174-6.71-6.444-16.44-5.002-11.408-8.675-12.718-9.554-20.663-.335-3.033-.975-8.824 2.667-12.22 4.18-3.898 11.184-2.013 11.998-1.79 11.72 3.338 15.881 19.586 16.44 21.776.895 3.458 1.257 7.933 2 16.887.73 8.79.224 8.328.895 11.553.627 3.13 1.61 6.177 2.93 9.084"/>
        <path fill="#333E63" fill-rule="nonzero" stroke="#000" stroke-width=".647" d="M64.455 327.554c-3.363-1.098-6.802-1.952-10.289-2.554-8.052-1.343-10.12 0-21.33-.895-8.594-.671-10.902-1.745-12.443-2.666-1.998-1.195-5.87-4.04-7.554-9.108-.548-1.656-2.03-6.114.224-9.777 1.94-3.159 5.63-4.056 7.33-4.445 10.582-2.411 21.527 5.053 32.834 12.774h0c.697.479 1.398.976 2.118 1.506h0c2.46 1.811 5.144 4.008 8.84 7.11v5.98c.002.7.093 1.397.27 2.075z"/>
        <path stroke="#000" stroke-width=".647" d="M307.632 53.906h39.777m48.762 134.59c.215-.258.473-.477.763-.648 1.729-1.029 4.531-.59 5.871.868m-220.008 85.891c1.288.569 2.736 1.056 4.21 1.553m28.154 0c.73-.382 1.422-.83 2.067-1.342.378-.298.722-.6 1.038-.895m-31.26 2.237c-1.473-.497-2.92-.982-4.209-1.553-2.17-.957-3.894-2.151-4.567-4.026-.591-1.65-.023-2.86.912-4.522.895-1.597 2.127-3.615 2.997-6.845.206-.77.302-1.912.314-3.53.015-2.31-.144-5.591-.4-10.105l-.224-3.99c-.31-5.3-.484-6.756-1.73-7.715-2.545-1.957-5.967.92-11.304.67-6.811-.324-11.696-5.517-12.631-6.517-1.56-1.665-2.714-3.668-3.373-5.851m68.86 46.455c-.2.727-.486 1.428-.853 2.087-.68 1.187-1.53 2.267-2.523 3.207-.313.3-.671.602-1.036.895-.646.51-1.339.96-2.069 1.342m-49.478-54.007c1.087 1.09 2.34 1.908 3.767 2.262 1.277.315 3.791-.483 8.053-2.262m44.54 43.886c-.05.868-.19 1.73-.413 2.57m193.433 10.244c4.543-.09 9.752-.425 14.566-1.201 4.988-.799 9.549-2.062 12.49-3.997m-38.506 4.82c1.342.152 2.885.264 4.684.331 1.923.072 4.238.099 6.766.047m-195.08-37.244c.074.816.182 1.814.408 3.95.223 2.047.539 5.144 1.044 10.108 0 .118.023.237.036.358v.087m-34.476 20.035c1.092.366 4.722 1.523 12.37 1.729 7.314.196 11.951.273 15.785-1.73m-70.922-105.411v-1.512h25.356v1.512m-29.26 0v-50.035c0-.224.018-.448.052-.67l.023-.128v-.038h0v-.047c.004-.037.012-.074.024-.11v-.065l.011-.04h0c-.002-.008-.002-.016 0-.024v-.027c.003-.018.007-.035.014-.052h0v-.058c.002-.02.008-.038.018-.056 0-.02 0-.036.015-.051l.016-.052.016-.04c.018-.056.038-.11.058-.163h0c.022-.056.047-.114.071-.17v-.02l.079-.164c.027-.053.029-.058.045-.085.015-.026.029-.058.046-.087.018-.029.052-.092.081-.14.03-.05.074-.122.114-.18l.018-.024v-.02l.107-.09.088-.114c.056-.072.114-.14.174-.208l.096-.105h0l.096-.096.085-.083.126-.112c.053-.045.107-.092.163-.134l.143-.105.119-.083.044-.029.043-.03.114-.068.168-.097.172-.09h0l.143-.064.052-.022c.045-.021.093-.04.14-.056h.032l.179-.063h.036l.055-.016c.024-.008.048-.014.072-.02l.036-.01c.12-.032.241-.061.364-.084l.141-.022h.107l.193-.02h25.227m5.659 217.413H72.412c-2.183.004-4.276-.861-5.818-2.405-1.542-1.544-2.405-3.64-2.398-5.821V62.117c.002-4.535 3.68-8.211 8.216-8.211h211.792m-83.432 279.82h-10.683m202.179 0H217.192m225.82 0h26.306c4.537 0 8.215-3.678 8.216-8.214V62.117c-.004-4.535-3.68-8.211-8.216-8.211h-97.42m54.411 279.82h-14.333"/>
        <path stroke="#000" stroke-width=".5" d="M39.251 116.399c1.859 5.486 3.17 11.143 3.915 16.888 2.05 15.928-1.54 23.078 1.601 34.862 1.995 7.48 6.822 17.279 19.429 27.389M7.988 190.729c15.365 19.166 34.495 34.98 56.208 46.469M29.318 253.674c4.128 3.119 7.722 6.888 10.642 11.159 7.956 11.705 6.075 20.719 12.924 33.958 2.262 4.375 5.731 9.703 11.314 15.226M11.855 306.938c2.966 1.789 6.15 3.188 9.475 4.162 4.586 1.315 9.365 1.824 14.125 1.503 5.798-.268 14.036.671 26.077 4.684h0c.617.206 1.243.42 1.879.642l.79.284"/>
        <path fill="#333E63" fill-rule="nonzero" stroke="#000" stroke-width=".647" d="M530.996 84.456c-3.309 8.815-14.412 7.238-17.7 15.827-.881 2.3-.767 4.966-.541 10.305.304 7.115 1.744 9.83.04 13.687-1.492 3.37-4.543 5.057-5.212 5.408-6.406 3.355-13.42-.977-14.763 1.353-.545.949.774 1.472 1.864 6.01.355 1.47 1.252 5.223 0 8.415-.153.39-.343.765-.569 1.119-1.418 2.22-3.87 2.621-8.188 6.166l-.027.023c-.195.159-.396.326-.6.5l-.06.054c-4.45 3.832-5.418 6.415-6.599 6.825-.177.062-.368.074-.552.036-.21-.04-.406-.134-.568-.273v-51.37c1.438-1.836 4.317-5.507 8.68-6.06 4.604-.583 7.606 2.67 11.422.896 2.326-1.079 3.355-3.378 3.605-3.908 1.987-4.4-1.134-7.5-.601-12.922.476-4.796 3.527-8.122 4.992-9.719 4.44-4.84 12.054-8.338 18.79-6.31 1.207.365 4.182 1.264 5.976 4.009 2.695 4.127.812 9.39.61 9.929z"/>
        <path fill="#333E63" fill-rule="nonzero" stroke="#000" stroke-width=".647" d="M477.534 187.644c.691-.322 1.492-.778 2.42-1.328 2.568-1.521 6.118-3.738 11.07-5.693 3.548-1.398 11.53-4.473 20.735-3.907 9.536.579 12.482 4.567 16.776 5.055 1.027.11 2.066.026 3.062-.244 6.487-1.667 17.333-14.702 13.524-27.96-3.09-10.736-14.333-16.377-22.54-16.831-6.686-.37-13.645 2.565-18.932 4.809-3.313 1.397-6.498 3.08-9.518 5.03h0c-2.858 1.876-5.592 3.934-8.187 6.16l-.223.195-.396.333-.065.058c-3.369 2.839-5.355 4.981-6.594 6.82h0c-.427.627-.8 1.287-1.118 1.975"/>
        <path fill="#333E63" fill-rule="nonzero" stroke="#000" stroke-width=".647" d="M532.195 192.344c-.85 4.348-4.595 6.934-5.785 7.652-2.762 1.704-5.753 2.13-15.852 1.062-14.295-1.516-14.183-3.006-20.737-2.704-6.02.284-9.954 1.704-12.287 1.494v-9.67c.722-1.336 1.53-2.624 2.42-3.856h0c4.208-5.864 11.701-12.783 22.791-14.107 2.18-.262 12.477-1.49 21.037 5.109 1.735 1.315 3.327 2.807 4.75 4.453h0c2.343 2.756 4.454 6.498 3.663 10.567z"/>
        <path stroke="#000" stroke-width=".647" d="M477.534 131.05c3.765-5.058 7.605-8.312 10.817-10.482 5.543-3.755 8.762-3.995 13.074-8.723 3.29-3.604 4.892-7.663 7.963-15.626 4.51-11.698 3.049-13.846 5.71-17.583 1.92-2.684 5.37-5.512 12.055-7.022M477.534 171.452c19.89-13.673 44.245-19.246 68.101-15.583M477.534 195.94c17.24-7.607 36.555-9.127 54.772-4.31"/>
        <path fill="#333E63" fill-rule="nonzero" stroke="#000" stroke-width=".647" d="M497.967 296.577c-5.498 1.834-9.461 1.633-14.212 5.493-2.642 2.186-4.766 4.93-6.22 8.035v-12.598c1.762-3.92 4.148-7.142 6.82-10.163 2.236-2.521 17.336-21.185 27.948-17.13 2.838 1.085 5.484 3.861 5.9 6.934.967 7.104-10.025 16.022-20.236 19.429zM517.262 317.247c-1.846 3.668-5.52 4.92-7.514 5.56-5.464 1.76-9.126.135-15.326-.751-6.968-.993-12.772-.427-16.888.09v-6.487c3.689-2.97 5.724-4.563 8.473-6.236 3.355-2.038 8.066-4.856 14.727-6.312 3.61-.79 6.245-1.33 9.466-.3 1.313.425 5.368 1.715 7.212 5.86.158.36 1.912 4.476-.15 8.576z"/>
        <path stroke="#000" stroke-width=".647" d="M477.534 301.028c11.846-10.782 25.282-19.676 39.835-26.37"/>
        <path stroke="#0950D0" stroke-width=".647" d="M477.534 317.468c12.84-5.4 27.119-6.336 40.553-2.66"/>
        <path fill="#010101" fill-rule="nonzero" d="M336.236 23.2c1.342-.32.846-2.398-.496-2.078-1.342.32-.841 2.398.496 2.078zM328.857 21.67c1.342-.32.843-2.398-.496-2.076-1.34.322-.842 2.398.496 2.076z"/>
        <circle cx="336.192" cy="21.831" r="1" fill="#FFF" fill-rule="nonzero"/>
        <circle cx="328.897" cy="20.281" r="1" fill="#FFF" fill-rule="nonzero"/>
        <path fill="#010101" fill-rule="nonzero" d="M332.08 23.857c.074.208.135.42.181.636.05.223.094.427.126.642.031.214.06.429.087.644.027.214.042.431.05.648v.16l-.13.026c-.119.028-.24.043-.36.045-.119.004-.237-.002-.354-.02-.235-.03-.457-.124-.642-.271.213.045.432.057.649.034.105-.01.21-.026.313-.047.1-.023.208-.047.295-.076l-.125.185c-.038-.224-.058-.43-.085-.644-.027-.215-.04-.432-.047-.649-.007-.217-.014-.447 0-.653 0-.22.014-.44.042-.66zM328.262 27.42c.362.421.754.816 1.172 1.181.2.171.412.326.635.464.21.135.435.244.671.324.475.166.985.198 1.477.094.534-.126 1.052-.313 1.543-.56l.025.032c-.439.364-.942.643-1.483.82-.274.083-.558.125-.844.126-.286-.004-.57-.054-.843-.145-.537-.2-1.02-.522-1.411-.94-.394-.41-.727-.874-.987-1.38l.045-.016zM326.754 19.196c.231-.318.54-.573.895-.74.088-.047.18-.086.275-.117.095-.035.192-.064.291-.085.099-.026.2-.041.302-.047.103-.013.207-.018.311-.015.105 0 .208.017.313.033.105.016.206.047.307.078.1.032.192.088.288.13.047.022.093.046.137.074l.125.096c.322.24.561.576.682.96l-.031.024c-.22-.29-.493-.536-.806-.722-.312-.184-.666-.282-1.028-.286-.362-.01-.723.047-1.065.165-.345.116-.674.279-.975.483l-.02-.031zM334.454 19.887c.338-.203.723-.316 1.118-.329.099-.01.198-.01.297 0 .1.005.201.016.3.034.101.016.201.042.298.076.1.028.198.064.293.107.091.052.185.099.273.155.087.055.172.123.252.192.08.07.154.145.224.224.031.042.072.078.098.12l.076.14c.204.346.293.748.253 1.149h-.038c-.084-.352-.236-.684-.447-.978-.215-.292-.503-.523-.835-.67-.33-.15-.684-.24-1.046-.265-.363-.028-.728-.007-1.085.063l-.031-.018zM420.293 198.736c.246 1.278 2.236.895 1.984-.384-.253-1.28-2.235-.893-1.984.384z"/>
        <circle cx="421.601" cy="198.833" r="1" fill="#FFF" fill-rule="nonzero"/>
        <path fill="#010101" fill-rule="nonzero" d="M418.608 192.362c-.297.027-.595.035-.895.035-.3 0-.59 0-.894-.022-.304-.022-.586-.038-.88-.058-.292-.02-.585-.056-.878-.098l.185-.128c-.039.137-.07.276-.094.416-.024.141-.035.286-.047.432-.015.296.018.593.099.879-.185-.256-.3-.555-.333-.868-.022-.157-.03-.316-.023-.474.004-.161.024-.322.058-.479l.03-.134h.156c.295 0 .588.038.881.06.293.023.586.058.877.1.29.043.584.084.875.137.29.054.595.11.883.202zM411.918 198.495c.126.51.286 1.01.479 1.499.094.231.205.456.333.67.118.206.262.397.427.566.323.343.733.593 1.186.723.501.131 1.016.206 1.534.224v.038c-.527.115-1.071.128-1.604.04-.265-.05-.522-.14-.762-.264-.24-.129-.457-.294-.645-.49-.363-.403-.627-.884-.771-1.407-.152-.516-.227-1.052-.224-1.59l.047-.01zM422.717 196.849c.296.23.527.531.671.876.042.085.075.173.099.264.03.092.054.185.071.28.02.096.032.193.034.29.008.099.008.198 0 .296-.014.098-.025.2-.045.298-.02.098-.054.194-.087.288-.034.094-.092.179-.137.268-.023.044-.048.087-.076.128l-.096.112c-.244.296-.576.506-.948.6l-.023-.034c.283-.195.526-.442.714-.73.185-.287.293-.618.313-.96.023-.34-.015-.684-.112-1.012-.094-.332-.234-.648-.414-.942l.036-.022zM195.08 201.785c1.08 0 1.082-1.68 0-1.68-1.083 0-1.083 1.68 0 1.68zM189.718 199.267c1.08 0 1.082-1.68 0-1.68-1.083 0-1.083 1.68 0 1.68z"/>
        <circle cx="195.294" cy="200.729" r="1" fill="#FFF" fill-rule="nonzero"/>
        <circle cx="190.002" cy="198.211" r="1" fill="#FFF" fill-rule="nonzero"/>
        <path fill="#010101" fill-rule="nonzero" d="M191.78 201.532c.03.173.046.347.047.522v.514c-.022.341-.066.68-.132 1.016l-.031.156h-.137c-.097-.002-.194-.015-.288-.038-.093-.02-.184-.05-.271-.09-.175-.07-.325-.19-.432-.346.16.063.327.103.497.12h.244c.074.005.149.005.223 0l-.165.155c.022-.34.068-.679.136-1.013.036-.168.076-.333.126-.499.049-.17.11-.336.183-.497zM188.215 203.546c.222.374.464.737.724 1.087.124.158.26.308.405.447.134.137.284.257.447.358.32.205.69.324 1.07.344.429.013.858-.017 1.281-.09l.018.037c-.402.2-.838.321-1.286.357-.225.014-.451-.005-.671-.055-.219-.057-.428-.147-.62-.267-.374-.251-.685-.587-.908-.98-.226-.386-.395-.803-.5-1.238h.04zM188.561 196.985c.226-.223.51-.378.819-.447.076-.024.155-.04.235-.045.08-.012.162-.018.244-.018.083-.002.166.004.248.018.084.01.167.025.248.047.08.027.161.054.24.087.078.034.154.076.223.121.07.045.134.107.201.161.032.03.065.054.094.085l.076.103c.204.253.313.57.31.895l-.037.015c-.114-.26-.278-.497-.483-.695-.204-.196-.457-.335-.731-.403-.275-.074-.56-.098-.843-.072-.285.026-.565.09-.833.188l-.01-.04zM194.321 198.922c.295-.12.617-.155.93-.1.08.009.159.026.235.05.077.022.151.048.224.08.078.03.153.068.224.113.073.042.143.088.21.139.063.058.127.114.188.174.06.06.112.132.16.202.046.072.087.147.124.223.016.04.04.076.051.117l.032.123c.088.315.065.65-.067.95h-.04c-.003-.285-.062-.567-.173-.83-.112-.26-.29-.486-.517-.657-.223-.176-.476-.31-.747-.394-.271-.089-.553-.14-.838-.154l.004-.036z"/>
    </g>
</svg>
